HIERARCHY
ROOT Hips
{
	OFFSET 0.000000 97.167313 0.000000
	CHANNELS 6 Xposition Yposition Zposition Xrotation Yrotation Zrotation
	JOINT Spine
	{
		OFFSET 0.000000 13.784798 0.064400
		CHANNELS 3 Xrotation Yrotation Zrotation
		JOINT Spine1
		{
			OFFSET 0.000000 12.037903 0.404700
			CHANNELS 3 Xrotation Yrotation Zrotation
			JOINT Spine2
			{
				OFFSET 0.000000 17.795601 0.420200
				CHANNELS 3 Xrotation Yrotation Zrotation
				JOINT Neck
				{
					OFFSET 0.000000 39.131302 11.954600
					CHANNELS 3 Xrotation Yrotation Zrotation
					JOINT Head
					{
						OFFSET 0.000000 14.456192 15.627699
						CHANNELS 3 Xrotation Yrotation Zrotation
						JOINT HeadTop_End
						{
							OFFSET 0.000000 15.703506 7.603401
							CHANNELS 3 Xrotation Yrotation Zrotation
							End Site
							{
								OFFSET 0.000000 17.447403 0.000000
							}
						}
					}
				}
				JOINT LeftShoulder
				{
					OFFSET 17.399500 24.608795 1.168800
					CHANNELS 3 Xrotation Yrotation Zrotation
					JOINT LeftArm
					{
						OFFSET 18.980635 5.765305 1.818600
						CHANNELS 3 Xrotation Yrotation Zrotation
						JOINT LeftForeArm
						{
							OFFSET 49.290169 0.000000 0.000000
							CHANNELS 3 Xrotation Yrotation Zrotation
							JOINT LeftHand
							{
								OFFSET 31.562012 0.000000 0.000000
								CHANNELS 3 Xrotation Yrotation Zrotation
								JOINT LeftHandThumb1
								{
									OFFSET 6.133995 -4.388519 7.076070
									CHANNELS 3 Xrotation Yrotation Zrotation
									JOINT LeftHandThumb2
									{
										OFFSET 6.037666 -3.485840 3.485847
										CHANNELS 3 Xrotation Yrotation Zrotation
										JOINT LeftHandThumb3
										{
											OFFSET 6.496506 -3.750763 3.750761
											CHANNELS 3 Xrotation Yrotation Zrotation
											JOINT LeftHandThumb4
											{
												OFFSET 5.616882 -3.242905 3.242910
												CHANNELS 3 Xrotation Yrotation Zrotation
												End Site
												{
													OFFSET -1.254608 7.132141 0.375429
												}
											}
										}
									}
								}
								JOINT LeftHandPinky1
								{
									OFFSET 18.920792 -0.453171 -11.426712
									CHANNELS 3 Xrotation Yrotation Zrotation
									JOINT LeftHandPinky2
									{
										OFFSET 4.919586 0.000000 0.000000
										CHANNELS 3 Xrotation Yrotation Zrotation
										JOINT LeftHandPinky3
										{
											OFFSET 5.233047 0.000000 0.000000
											CHANNELS 3 Xrotation Yrotation Zrotation
											JOINT LeftHandPinky4
											{
												OFFSET 5.571716 0.000000 0.000000
												CHANNELS 3 Xrotation Yrotation Zrotation
												End Site
												{
													OFFSET -3.459808 4.342407 -0.466164
												}
											}
										}
									}
								}
								JOINT LeftHandRing1
								{
									OFFSET 22.726120 -0.094986 -6.500475
									CHANNELS 3 Xrotation Yrotation Zrotation
									JOINT LeftHandRing2
									{
										OFFSET 6.408615 0.000000 0.000000
										CHANNELS 3 Xrotation Yrotation Zrotation
										JOINT LeftHandRing3
										{
											OFFSET 6.150223 0.000000 0.000000
											CHANNELS 3 Xrotation Yrotation Zrotation
											JOINT LeftHandRing4
											{
												OFFSET 6.145386 0.000000 0.000000
												CHANNELS 3 Xrotation Yrotation Zrotation
												End Site
												{
													OFFSET -3.671402 4.923981 -0.202372
												}
											}
										}
									}
								}
								JOINT LeftHandMiddle1
								{
									OFFSET 23.373947 0.000000 0.000001
									CHANNELS 3 Xrotation Yrotation Zrotation
									JOINT LeftHandMiddle2
									{
										OFFSET 6.996567 0.000000 0.000000
										CHANNELS 3 Xrotation Yrotation Zrotation
										JOINT LeftHandMiddle3
										{
											OFFSET 7.015945 0.000000 0.000000
											CHANNELS 3 Xrotation Yrotation Zrotation
											JOINT LeftHandMiddle4
											{
												OFFSET 7.721573 0.000000 0.000000
												CHANNELS 3 Xrotation Yrotation Zrotation
												End Site
												{
													OFFSET -4.651108 6.158463 0.251582
												}
											}
										}
									}
								}
								JOINT LeftHandIndex1
								{
									OFFSET 21.310577 -0.490082 6.209344
									CHANNELS 3 Xrotation Yrotation Zrotation
									JOINT LeftHandIndex2
									{
										OFFSET 7.536453 0.000000 0.000000
										CHANNELS 3 Xrotation Yrotation Zrotation
										JOINT LeftHandIndex3
										{
											OFFSET 7.512344 0.000000 0.000000
											CHANNELS 3 Xrotation Yrotation Zrotation
											JOINT LeftHandIndex4
											{
												OFFSET 10.212402 0.000000 0.000001
												CHANNELS 3 Xrotation Yrotation Zrotation
												End Site
												{
													OFFSET -5.180801 8.690506 1.388433
												}
											}
										}
									}
								}
							}
						}
					}
				}
				JOINT RightShoulder
				{
					OFFSET -17.399500 24.608795 1.168800
					CHANNELS 3 Xrotation Yrotation Zrotation
					JOINT RightArm
					{
						OFFSET -18.980635 5.765305 1.818600
						CHANNELS 3 Xrotation Yrotation Zrotation
						JOINT RightForeArm
						{
							OFFSET -49.290169 0.000000 0.000000
							CHANNELS 3 Xrotation Yrotation Zrotation
							JOINT RightHand
							{
								OFFSET -31.562012 0.000000 0.000000
								CHANNELS 3 Xrotation Yrotation Zrotation
								JOINT RightHandThumb1
								{
									OFFSET -6.133995 -4.388519 7.076070
									CHANNELS 3 Xrotation Yrotation Zrotation
									JOINT RightHandThumb2
									{
										OFFSET -6.037666 -3.485840 3.485847
										CHANNELS 3 Xrotation Yrotation Zrotation
										JOINT RightHandThumb3
										{
											OFFSET -6.496506 -3.750763 3.750761
											CHANNELS 3 Xrotation Yrotation Zrotation
											JOINT RightHandThumb4
											{
												OFFSET -5.616882 -3.242905 3.242910
												CHANNELS 3 Xrotation Yrotation Zrotation
												End Site
												{
													OFFSET 1.254608 7.132141 0.375429
												}
											}
										}
									}
								}
								JOINT RightHandIndex1
								{
									OFFSET -21.310577 -0.490082 6.209344
									CHANNELS 3 Xrotation Yrotation Zrotation
									JOINT RightHandIndex2
									{
										OFFSET -7.536453 0.000000 0.000000
										CHANNELS 3 Xrotation Yrotation Zrotation
										JOINT RightHandIndex3
										{
											OFFSET -7.512344 0.000000 0.000000
											CHANNELS 3 Xrotation Yrotation Zrotation
											JOINT RightHandIndex4
											{
												OFFSET -10.212402 0.000000 0.000001
												CHANNELS 3 Xrotation Yrotation Zrotation
												End Site
												{
													OFFSET 5.180801 8.690506 1.388433
												}
											}
										}
									}
								}
								JOINT RightHandMiddle1
								{
									OFFSET -23.373947 0.000000 0.000001
									CHANNELS 3 Xrotation Yrotation Zrotation
									JOINT RightHandMiddle2
									{
										OFFSET -6.996567 0.000000 0.000000
										CHANNELS 3 Xrotation Yrotation Zrotation
										JOINT RightHandMiddle3
										{
											OFFSET -7.015945 0.000000 0.000000
											CHANNELS 3 Xrotation Yrotation Zrotation
											JOINT RightHandMiddle4
											{
												OFFSET -7.721573 0.000000 0.000000
												CHANNELS 3 Xrotation Yrotation Zrotation
												End Site
												{
													OFFSET 4.651108 6.158463 0.251582
												}
											}
										}
									}
								}
								JOINT RightHandRing1
								{
									OFFSET -22.726120 -0.094986 -6.500475
									CHANNELS 3 Xrotation Yrotation Zrotation
									JOINT RightHandRing2
									{
										OFFSET -6.408615 0.000000 0.000000
										CHANNELS 3 Xrotation Yrotation Zrotation
										JOINT RightHandRing3
										{
											OFFSET -6.150223 0.000000 0.000000
											CHANNELS 3 Xrotation Yrotation Zrotation
											JOINT RightHandRing4
											{
												OFFSET -6.145386 0.000000 0.000000
												CHANNELS 3 Xrotation Yrotation Zrotation
												End Site
												{
													OFFSET 3.671402 4.923981 -0.202372
												}
											}
										}
									}
								}
								JOINT RightHandPinky1
								{
									OFFSET -18.920792 -0.453171 -11.426712
									CHANNELS 3 Xrotation Yrotation Zrotation
									JOINT RightHandPinky2
									{
										OFFSET -4.919586 0.000000 0.000000
										CHANNELS 3 Xrotation Yrotation Zrotation
										JOINT RightHandPinky3
										{
											OFFSET -5.233047 0.000000 0.000000
											CHANNELS 3 Xrotation Yrotation Zrotation
											JOINT RightHandPinky4
											{
												OFFSET -5.571716 0.000000 0.000000
												CHANNELS 3 Xrotation Yrotation Zrotation
												End Site
												{
													OFFSET 3.459808 4.342407 -0.466164
												}
											}
										}
									}
								}
							}
						}
					}
				}
			}
		}
	}
	JOINT LeftUpLeg
	{
		OFFSET 19.899099 -7.885101 -3.429500
		CHANNELS 3 Xrotation Yrotation Zrotation
		JOINT LeftLeg
		{
			OFFSET 1.745560 -36.997807 10.304700
			CHANNELS 3 Xrotation Yrotation Zrotation
			JOINT LeftFoot
			{
				OFFSET -1.745558 -29.803308 -13.615400
				CHANNELS 3 Xrotation Yrotation Zrotation
				JOINT LeftToeBase
				{
					OFFSET 1.181900 -18.539904 15.226099
					CHANNELS 3 Xrotation Yrotation Zrotation
					JOINT LeftToe_End
					{
						OFFSET -0.863701 1.402801 16.534700
						CHANNELS 3 Xrotation Yrotation Zrotation
						End Site
						{
							OFFSET 0.000000 16.616566 0.000000
						}
					}
				}
			}
		}
	}
	JOINT RightUpLeg
	{
		OFFSET -19.899099 -7.885101 -3.429500
		CHANNELS 3 Xrotation Yrotation Zrotation
		JOINT RightLeg
		{
			OFFSET -1.745560 -36.997807 10.304700
			CHANNELS 3 Xrotation Yrotation Zrotation
			JOINT RightFoot
			{
				OFFSET 1.745558 -29.803308 -13.615400
				CHANNELS 3 Xrotation Yrotation Zrotation
				JOINT RightToeBase
				{
					OFFSET -1.181900 -18.539904 15.226099
					CHANNELS 3 Xrotation Yrotation Zrotation
					JOINT RightToe_End
					{
						OFFSET 0.863701 1.402801 16.534700
						CHANNELS 3 Xrotation Yrotation Zrotation
						End Site
						{
							OFFSET 0.000000 16.616566 0.000000
						}
					}
				}
			}
		}
	}
}
MOTION
Frames: 6
Frame Time: 0.033333
-0.142656 93.932129 2.076987 -2.033205 0.332750 1.488491 5.773001 -3.653980 -4.754098 0.646042 -1.078624 -3.369263 0.571841 -1.159146 -3.849446 0.558957 2.182183 0.666052 -6.353515 2.492203 8.695229 0.000000 -0.000000 0.000000 2.139121 -0.199037 -8.176073 1.914718 -8.675794 -55.670806 0.000003 -9.194320 -0.000002 -24.599652 6.817686 -2.091243 47.414873 -36.283375 34.305346 35.079589 32.697215 -35.600718 2.326012 28.996424 9.842172 -0.000002 0.000003 0.000001 1.630952 7.100944 -71.653315 3.238152 5.237041 -63.436263 1.185447 3.534771 -37.069820 -0.000001 0.000001 -0.000000 -1.357006 7.588137 -84.865449 6.808666 5.772432 -99.435595 4.934128 5.779012 -80.968389 -0.000000 0.000000 0.000005 7.319488 8.380728 -83.923839 6.943594 5.748505 -100.779940 1.302115 3.683829 -38.923049 0.000001 -0.000001 0.000004 0.089435 -6.394855 -82.623029 4.122891 5.590874 -72.792762 0.571473 2.525656 -25.495290 0.000000 0.000001 0.000001 0.495349 5.124547 11.158254 5.445173 -5.543259 73.086603 0.000013 27.855975 0.000000 5.300955 2.468283 3.654448 7.541751 23.490644 -3.084139 27.005993 -39.954728 9.855697 2.622035 -39.150217 -0.187829 0.000003 -0.000002 0.000001 12.501970 2.066375 19.763817 0.790474 -2.597713 33.844441 0.031031 -0.537329 6.611037 0.000000 -0.000005 0.000001 1.685052 -7.442173 20.645620 1.682341 -3.584848 50.269236 0.597064 -2.283319 29.305036 0.000001 0.000001 -0.000009 2.309113 -7.633085 28.280077 1.910743 -3.762604 53.832645 1.272931 -3.201247 43.360203 0.000000 -0.000001 -0.000005 -10.147577 -17.745695 22.796327 1.830552 -3.702779 52.601069 1.924223 -3.772412 54.038001 0.000000 -0.000001 -0.000001 -1.739858 9.926546 6.138796 10.492999 -3.430545 0.302861 -6.454903 1.028570 -5.229120 -0.667459 -0.000002 0.000000 -0.000000 0.000001 -0.000000 1.574167 -10.013002 -9.447963 12.632852 -4.230746 -1.055770 -10.520044 -2.569212 9.436548 -1.315458 0.000005 -0.000000 0.000000 -0.000002 -0.000000 
-0.139601 93.984642 2.046356 -2.097780 0.345723 1.464901 5.836212 -3.612859 -4.806045 0.646042 -1.062371 -3.369263 0.571842 -1.146229 -3.849446 0.507338 2.176097 0.666050 -6.382405 2.588797 8.762189 -0.000000 -0.000000 0.000000 2.170785 -0.116986 -8.179311 1.996451 -8.709184 -55.568824 0.000003 -9.569533 0.000002 -24.602109 6.934408 -2.030347 47.414873 -36.283379 34.305346 35.081757 32.699073 -35.601569 2.325999 28.996424 9.842187 0.000001 -0.000000 0.000002 1.631697 7.101611 -71.662276 3.237708 5.236815 -63.431386 1.185443 3.534774 -37.069841 0.000001 0.000000 -0.000002 -1.357011 7.588134 -84.865442 6.808664 5.772431 -99.435581 4.938279 5.779668 -81.009664 -0.000001 -0.000001 0.000003 7.319484 8.380728 -83.923798 6.943601 5.748507 -100.779933 1.302118 3.683829 -38.923028 0.000000 -0.000000 0.000001 0.089440 -6.394851 -82.623009 4.119183 5.589721 -72.754601 0.571475 2.525666 -25.495317 -0.000001 0.000001 0.000001 0.516646 5.016990 11.156375 5.444308 -5.469354 73.019408 -0.000002 27.435111 0.000031 5.283542 2.433060 3.657471 7.541747 23.490643 -3.084139 27.021072 -39.987329 9.862091 2.558572 -39.099087 -0.254345 -0.000000 -0.000001 0.000001 12.479984 2.112443 19.962353 0.777299 -2.577975 33.552635 0.031029 -0.537337 6.611016 -0.000001 -0.000001 -0.000001 1.682040 -7.424329 20.700394 1.678493 -3.581659 50.207723 0.597067 -2.283323 29.305039 0.000000 0.000001 -0.000004 2.330375 -7.686332 28.172920 1.905162 -3.758525 53.747612 1.263857 -3.191639 43.197494 0.000001 0.000001 -0.000005 -10.119705 -17.761347 22.656748 1.811763 -3.688363 52.309475 1.910378 -3.762348 53.827256 -0.000001 -0.000003 0.000000 -1.629037 9.949416 6.133822 10.337399 -3.441792 0.316746 -6.372707 1.023616 -5.212487 -0.620751 -0.000004 -0.000001 0.000000 0.000000 0.000000 1.712928 -10.000864 -9.346725 12.430797 -4.271626 -1.204351 -10.387589 -2.574716 9.528749 -1.305474 0.000001 -0.000002 0.000000 -0.000001 0.000000 
-0.135403 94.038628 2.014148 -2.160540 0.363027 1.440224 5.869945 -3.573479 -4.840538 0.646042 -1.045728 -3.369264 0.571841 -1.135864 -3.849443 0.440476 2.166886 0.666050 -6.384642 2.661735 8.779511 0.000000 -0.000000 0.000000 2.207129 -0.023631 -8.197570 1.980814 -8.765583 -55.487272 0.000002 -9.683984 0.000012 -24.653300 6.907552 -2.040575 47.414873 -36.283382 34.305353 35.114655 32.716357 -35.626902 2.325992 28.996421 9.842190 0.000001 0.000001 0.000001 1.634399 7.104036 -71.694870 3.236639 5.236286 -63.419720 1.185446 3.534773 -37.069807 -0.000000 -0.000000 -0.000001 -1.357009 7.588134 -84.865435 6.808665 5.772434 -99.435588 4.935181 5.779178 -80.978928 -0.000000 0.000000 -0.000000 7.319489 8.380728 -83.923812 6.943598 5.748504 -100.779940 1.302115 3.683825 -38.923018 -0.000000 0.000000 0.000004 0.086758 -6.393066 -82.640617 4.118292 5.589458 -72.745483 0.571478 2.525660 -25.495324 -0.000001 0.000002 -0.000003 0.542453 4.923868 11.159814 5.481809 -5.397009 72.952800 0.000010 27.070497 -0.000002 5.247502 2.338170 3.665711 7.541746 23.490644 -3.084135 26.969955 -39.930334 9.808116 2.399324 -38.977379 -0.423262 -0.000003 -0.000005 0.000003 12.460035 2.148513 20.208798 0.775662 -2.575521 33.516223 0.031030 -0.537325 6.611049 0.000001 0.000000 0.000002 1.690933 -7.420953 20.846989 1.673703 -3.577670 50.131014 0.597066 -2.283316 29.305046 0.000000 -0.000000 -0.000007 2.357497 -7.734258 28.188700 1.899534 -3.754394 53.661648 1.254149 -3.181282 43.022846 -0.000000 0.000001 -0.000003 -10.114732 -17.760461 22.564030 1.796031 -3.676191 52.064616 1.896192 -3.751951 53.610749 -0.000000 -0.000004 0.000005 -1.531778 9.953153 6.125571 10.195064 -3.450832 0.336024 -6.285227 1.016886 -5.181828 -0.599089 0.000006 -0.000000 -0.000000 0.000000 -0.000000 1.854524 -9.987127 -9.238448 12.221086 -4.321272 -1.367097 -10.251069 -2.583279 9.628060 -1.294552 -0.000009 0.000000 -0.000000 -0.000001 0.000000 
-0.131715 94.091316 1.984822 -2.205195 0.410735 1.425369 5.913133 -3.559232 -4.876594 0.646043 -1.026521 -3.369263 0.571842 -1.124720 -3.851892 0.389436 2.181673 0.688222 -6.386640 2.980943 8.803655 0.000000 0.000000 0.000000 2.236725 0.046888 -8.211625 1.917663 -8.802374 -55.440273 0.000004 -9.666411 -0.000020 -24.675141 6.891406 -2.142201 47.414880 -36.283382 34.305339 35.133967 32.726585 -35.641717 2.325980 28.996417 9.842182 -0.000003 -0.000000 0.000000 1.643908 7.107631 -71.705184 3.241428 5.238677 -63.472156 1.184859 3.533994 -37.060292 0.000000 0.000001 -0.000004 -1.358128 7.586566 -84.853072 6.810637 5.772108 -99.455170 4.933863 5.778968 -80.965793 -0.000001 0.000000 0.000005 7.318824 8.380876 -83.917439 6.943598 5.748506 -100.779967 1.302115 3.683831 -38.923004 0.000000 -0.000001 0.000004 0.087019 -6.393238 -82.638923 4.119423 5.589802 -72.757108 0.571481 2.525662 -25.495307 -0.000003 -0.000000 -0.000001 0.564675 4.839733 11.162949 5.540097 -5.322875 72.889115 0.000004 26.725917 0.000021 5.173477 2.255338 3.659369 7.541746 23.490644 -3.084136 26.927872 -39.883186 9.763660 2.545649 -39.096426 -0.261726 0.000001 0.000001 0.000002 12.452294 2.164385 20.278000 0.787117 -2.592712 33.770310 0.031039 -0.537336 6.611028 -0.000001 -0.000001 -0.000001 1.696835 -7.422730 20.921896 1.671718 -3.576015 50.099175 0.597067 -2.283318 29.305046 -0.000001 0.000001 -0.000009 2.379639 -7.785199 28.114799 1.893847 -3.750217 53.574812 1.246744 -3.173344 42.889305 0.000000 -0.000000 -0.000003 -10.146821 -17.731106 22.414533 1.784254 -3.666992 51.880679 1.884974 -3.743683 53.439134 0.000000 -0.000000 0.000006 -1.442909 9.950785 6.130494 10.017716 -3.466479 0.337080 -6.179770 1.011923 -5.171043 -0.575679 -0.000002 0.000001 0.000000 -0.000001 -0.000000 1.989785 -9.968273 -9.137583 12.016815 -4.405232 -1.533788 -10.127221 -2.594594 9.740061 -1.283198 0.000005 0.000003 0.000000 -0.000002 -0.000000 
-0.114841 94.097351 1.962379 -2.229516 0.506795 1.410237 5.931579 -3.542519 -4.901628 0.646040 -1.013647 -3.369260 0.571841 -1.111929 -3.855942 0.384202 2.246525 0.731425 -6.407299 3.711736 8.897559 -0.000000 0.000000 0.000000 2.244042 0.061840 -8.211287 1.884255 -8.786321 -55.445744 0.000002 -9.731320 -0.000025 -24.554240 6.922685 -2.159266 47.414876 -36.283386 34.305349 35.132089 32.724860 -35.641174 2.322713 28.983713 9.840414 0.000002 -0.000001 -0.000001 1.653615 7.109727 -71.681995 3.247382 5.241631 -63.537391 1.184408 3.533395 -37.052994 -0.000001 0.000002 -0.000007 -1.359917 7.584087 -84.833436 6.820054 5.770537 -99.548839 4.937357 5.779522 -81.000443 -0.000000 0.000001 0.000005 7.317701 8.381142 -83.906750 6.943598 5.748507 -100.779967 1.302117 3.683825 -38.923011 -0.000000 0.000000 0.000004 0.090061 -6.395264 -82.618924 4.123871 5.591172 -72.802795 0.571479 2.525662 -25.495320 -0.000000 0.000003 0.000001 0.585113 4.761353 11.165847 5.685191 -5.272457 72.825676 0.000005 26.477476 -0.000002 5.045773 2.140551 3.646004 7.541750 23.490644 -3.084137 26.888349 -39.844892 9.725978 2.702939 -39.221699 -0.089649 0.000001 0.000004 -0.000002 12.453457 2.165798 20.217869 0.800096 -2.611974 34.055917 0.031159 -0.538484 6.625193 0.000000 -0.000001 -0.000001 1.697363 -7.421897 20.934204 1.673444 -3.577458 50.126878 0.597069 -2.283318 29.305053 -0.000000 0.000002 -0.000009 2.401431 -7.841738 27.998670 1.888155 -3.746016 53.487720 1.240890 -3.167035 42.783386 -0.000000 0.000001 -0.000005 -10.200617 -17.680853 22.208857 1.772532 -3.657785 51.697200 1.872529 -3.734436 53.248162 -0.000000 -0.000000 0.000006 -1.485386 9.949825 6.132121 10.043620 -3.547667 0.333349 -6.163392 0.995309 -5.115518 -0.554337 -0.000006 -0.000001 -0.000000 0.000000 0.000000 2.070189 -9.928898 -9.063653 11.957870 -4.529920 -1.685997 -10.101605 -2.621951 9.880206 -1.273056 0.000002 -0.000000 0.000000 -0.000001 -0.000000 
-0.100429 94.103035 1.940855 -2.252562 0.597885 1.396303 5.945673 -3.526204 -4.925642 0.646043 -1.005791 -3.369263 0.571840 -1.103623 -3.859541 0.384426 2.317579 0.778256 -6.427902 4.486949 9.014506 0.000000 0.000000 -0.000000 2.242857 0.049766 -8.206649 1.855357 -8.757940 -55.472450 0.000003 -9.765985 -0.000002 -24.419031 6.935333 -2.160260 47.414876 -36.283379 34.305346 35.142047 32.729734 -35.649223 2.327686 28.983023 9.830874 0.000001 -0.000001 0.000000 1.653296 7.108248 -71.652694 3.241822 5.238871 -63.476438 1.184054 3.532924 -37.047165 0.000000 0.000000 -0.000006 -1.360416 7.583395 -84.827999 6.823325 5.769987 -99.581358 4.939474 5.779854 -81.021521 -0.000001 -0.000001 0.000005 7.320166 8.380568 -83.930266 6.943597 5.748508 -100.779926 1.302117 3.683825 -38.923018 -0.000000 -0.000000 0.000008 0.088060 -6.393938 -82.632059 4.127300 5.592234 -72.838018 0.571479 2.525662 -25.495324 0.000002 0.000003 0.000001 0.604682 4.685219 11.168649 5.828535 -5.219686 72.762115 0.000007 26.234219 0.000010 4.928609 2.015501 3.635626 7.541747 23.490643 -3.084139 26.819132 -39.781358 9.662272 2.586240 -39.145962 -0.205866 0.000002 0.000001 -0.000001 12.452051 2.167022 20.251967 0.787703 -2.593585 33.783396 0.031262 -0.539289 6.635198 -0.000000 0.000000 0.000001 1.698178 -7.421258 20.949438 1.677053 -3.580455 50.184665 0.597066 -2.283319 29.305046 -0.000000 0.000001 -0.000011 2.421567 -7.896921 27.874176 1.882490 -3.741828 53.400977 1.235055 -3.160728 42.677675 -0.000001 -0.000000 -0.000003 -10.264511 -17.621121 21.976108 1.759145 -3.647196 51.487066 1.858249 -3.723756 53.028732 0.000001 -0.000004 0.000002 -1.529596 9.946659 6.137365 10.062493 -3.621111 0.324481 -6.144683 0.979870 -5.060593 -0.531546 0.000004 0.000001 -0.000000 0.000000 -0.000000 2.144243 -9.896089 -9.007317 11.903092 -4.627298 -1.780514 -10.081667 -2.642551 9.972557 -1.267533 -0.000012 0.000002 -0.000000 -0.000003 -0.000000 
